<svg aria-hidden="true" style="position: absolute; width: 0; height: 0; overflow: hidden;" version="1.1" xmlns="http://www.w3.org/2000/svg" xmlns:xlink="http://www.w3.org/1999/xlink">
<defs>
<symbol id="sad" viewBox="0 0 32 32">
<path fill="#000" style="fill: var(--color1, #000)" d="M32 16c0 8.837-7.163 16-16 16s-16-7.163-16-16c0-8.837 7.163-16 16-16s16 7.163 16 16z"></path>
<path fill="#212731" style="fill: var(--color2, #212731)" d="M11 16c0 1.105-0.895 2-2 2s-2-0.895-2-2c0-1.105 0.895-2 2-2s2 0.895 2 2z"></path>
<path fill="#212731" style="fill: var(--color2, #212731)" d="M25 16c0 1.105-0.895 2-2 2s-2-0.895-2-2c0-1.105 0.895-2 2-2s2 0.895 2 2z"></path>
<path fill="none" stroke="#212731" style="stroke: var(--color2, #212731)" stroke-linejoin="miter" stroke-linecap="butt" stroke-miterlimit="10" stroke-width="1.2804" d="M21 24c-2.211-2.212-7.789-2.212-10 0"></path>
<path fill="#2667c6" style="fill: var(--color3, #2667c6)" d="M25 27c0 1.105-0.895 2-2 2s-2-0.895-2-2v0c0-1.104 2-4 2-4s2 2.896 2 4z"></path>
<path fill="none" stroke="#212731" style="stroke: var(--color2, #212731)" stroke-linejoin="miter" stroke-linecap="butt" stroke-miterlimit="10" stroke-width="1" d="M27 14c-1-2-3-3-5-3M5 14c1-2 3-3 5-3"></path>
</symbol>

<symbol id="heart" viewBox="0 0 32 32">
<path fill="#f25949" style="fill: var(--color4, #f25949)" d="M27.49 5.93c-3.13-3.090-8.15-3.19-11.47-0.33-0.010 0-0.010 0-0.020 0.010-3.197-2.932-8.529-2.768-11.53 0.37-3.29 3.29-3.29 8.65 0 11.94l9.85 9.88c0.429 0.431 1.023 0.698 1.68 0.698s1.251-0.267 1.68-0.698l0-0 9.85-9.88c3.292-3.151 3.264-8.859-0.040-11.99zM10.43 8.5c-1.489 0.003-2.755 0.954-3.228 2.281l-0.007 0.024c-0.139 0.396-0.509 0.675-0.945 0.675-0.117 0-0.229-0.020-0.333-0.057l0.007 0.002c-0.396-0.139-0.674-0.51-0.674-0.946 0-0.117 0.020-0.228 0.057-0.332l-0.002 0.007c0.284-0.807 0.724-1.496 1.288-2.061l-0 0c0.978-0.984 2.331-1.593 3.828-1.593 0.004 0 0.007 0 0.011 0h-0.001c0.552 0 1 0.448 1 1s-0.448 1-1 1v0z"></path>
<path fill="#fff" style="fill: var(--color5, #fff)" d="M10.43 6.5c-1.447 0-2.81 0.565-3.838 1.593-0.563 0.566-1.003 1.255-1.275 2.023l-0.012 0.038c-0.033 0.095-0.052 0.204-0.052 0.317 0 0.552 0.448 1 1 1 0.433 0 0.801-0.275 0.94-0.659l0.002-0.007c0.167-0.486 0.448-0.935 0.812-1.298 0.616-0.622 1.471-1.007 2.415-1.007 0.002 0 0.005 0 0.007 0h-0c0.552 0 1-0.448 1-1s-0.448-1-1-1v0z"></path>
</symbol>
</defs>
</svg>
